<!DOCTYPE svg PUBLIC "-//W3C//DTD SVG 1.1//EN" "http://www.w3.org/Graphics/SVG/1.1/DTD/svg11.dtd">
<!-- Uploaded to: SVG Repo, www.svgrepo.com, Transformed by: SVG Repo Mixer Tools -->
<svg width="214px" height="214px" viewBox="-2.4 -2.4 28.80 28.80" fill="none" xmlns="http://www.w3.org/2000/svg" stroke="black" stroke-width="0.00024000000000000003" transform="matrix(1, 0, 0, 1, 0, 0)rotate(0)">
<g id="SVGRepo_bgCarrier" stroke-width="0"/>
<g id="SVGRepo_tracerCarrier" stroke-linecap="round" stroke-linejoin="round" stroke="#CCCCCC" stroke-width="0.144"/>
<g id="SVGRepo_iconCarrier"> <path d="M19.4697 20.5303C19.7626 20.8232 20.2374 20.8232 20.5303 20.5303C20.8232 20.2374 20.8232 19.7626 20.5303 19.4697L19.4697 20.5303ZM17.25 10.5C17.25 14.2279 14.2279 17.25 10.5 17.25V18.75C15.0563 18.75 18.75 15.0563 18.75 10.5H17.25ZM10.5 17.25C6.77208 17.25 3.75 14.2279 3.75 10.5H2.25C2.25 15.0563 5.94365 18.75 10.5 18.75V17.25ZM3.75 10.5C3.75 6.77208 6.77208 3.75 10.5 3.75V2.25C5.94365 2.25 2.25 5.94365 2.25 10.5H3.75ZM10.5 3.75C14.2279 3.75 17.25 6.77208 17.25 10.5H18.75C18.75 5.94365 15.0563 2.25 10.5 2.25V3.75ZM20.5303 19.4697L16.3428 15.2821L15.2821 16.3428L19.4697 20.5303L20.5303 19.4697Z" fill="#001A72"/> </g>
</svg>